<svg width="22" height="24" viewBox="0 0 22 24" fill="none" xmlns="http://www.w3.org/2000/svg">
<path d="M19.1667 2.66634H18V0.333008H15.6667V2.66634H6.33333V0.333008H4V2.66634H2.83333C1.53833 2.66634 0.511667 3.71634 0.511667 4.99967L0.5 21.333C0.5 22.6163 1.53833 23.6663 2.83333 23.6663H19.1667C20.45 23.6663 21.5 22.6163 21.5 21.333V4.99967C21.5 3.71634 20.45 2.66634 19.1667 2.66634ZM19.1667 21.333H2.83333V9.66634H19.1667V21.333ZM19.1667 7.33301H2.83333V4.99967H19.1667V7.33301ZM7.5 14.333H5.16667V11.9997H7.5V14.333ZM12.1667 14.333H9.83333V11.9997H12.1667V14.333ZM16.8333 14.333H14.5V11.9997H16.8333V14.333ZM7.5 18.9997H5.16667V16.6663H7.5V18.9997ZM12.1667 18.9997H9.83333V16.6663H12.1667V18.9997ZM16.8333 18.9997H14.5V16.6663H16.8333V18.9997Z" fill="black"/>
</svg>
